<svg width="50" height="50" viewBox="0 0 50 50" fill="none" xmlns="http://www.w3.org/2000/svg">
<path d="M5.46875 42.9688C5.46875 43.833 6.16699 44.5312 7.03125 44.5312H42.9688C43.833 44.5312 44.5312 43.833 44.5312 42.9688V22.4609H5.46875V42.9688ZM42.9688 8.98438H34.7656V5.85938C34.7656 5.64453 34.5898 5.46875 34.375 5.46875H31.6406C31.4258 5.46875 31.25 5.64453 31.25 5.85938V8.98438H18.75V5.85938C18.75 5.64453 18.5742 5.46875 18.3594 5.46875H15.625C15.4102 5.46875 15.2344 5.64453 15.2344 5.85938V8.98438H7.03125C6.16699 8.98438 5.46875 9.68262 5.46875 10.5469V19.1406H44.5312V10.5469C44.5312 9.68262 43.833 8.98438 42.9688 8.98438Z" fill="black"/>
</svg>
